<?xml version="1.0" standalone="no"?><!DOCTYPE svg PUBLIC "-//W3C//DTD SVG 1.1//EN" "http://www.w3.org/Graphics/SVG/1.1/DTD/svg11.dtd"><svg t="1709109884121" class="icon" viewBox="0 0 1024 1024" version="1.1" xmlns="http://www.w3.org/2000/svg" p-id="12750" xmlns:xlink="http://www.w3.org/1999/xlink" width="200" height="200"><path d="M514.292 416.198m-297.303 0a297.303 297.303 0 1 0 594.606 0 297.303 297.303 0 1 0-594.606 0Z" fill="#FFFFFF" p-id="12751"></path><path d="M514.292 738.501c-86.09 0-167.028-33.525-227.903-94.4s-94.4-141.813-94.4-227.903 33.525-167.027 94.4-227.902 141.813-94.4 227.903-94.4 167.027 33.525 227.902 94.4 94.4 141.813 94.4 227.902c0 86.091-33.525 167.028-94.4 227.903-60.874 60.875-141.811 94.4-227.902 94.4z m0-594.606c-150.148 0-272.303 122.154-272.303 272.303s122.155 272.304 272.303 272.304 272.303-122.155 272.303-272.304-122.154-272.303-272.303-272.303z" fill="#5F56FF" p-id="12752"></path><path d="M533.485 172.096c-164.196 0-297.303 133.107-297.303 297.303s118.451 239.267 282.647 239.267 311.959-146.773 311.959-239.267c-0.001-164.195-133.108-297.303-297.303-297.303z m-14.657 408.351c-75.725 0-137.112-61.387-137.112-137.112s61.387-137.112 137.112-137.112S655.94 367.61 655.94 443.335c0.001 75.725-61.387 137.112-137.112 137.112z" fill="#75E6FF" p-id="12753"></path><path d="M684.926 932.063H345.831a25 25 0 0 1-22.114-36.659l98.58-186.986c6.438-12.212 21.559-16.894 33.774-10.456 12.213 6.439 16.895 21.561 10.456 33.774l-79.253 150.327h256.212l-79.253-150.327c-6.439-12.214-1.758-27.335 10.456-33.774s27.335-1.757 33.774 10.456l98.58 186.986a25.002 25.002 0 0 1-22.117 36.659z" fill="#5F56FF" p-id="12754"></path><path d="M514.292 738.501c-86.09 0-167.028-33.525-227.903-94.4s-94.4-141.813-94.4-227.903 33.525-167.027 94.4-227.902 141.813-94.4 227.903-94.4 167.027 33.525 227.902 94.4 94.4 141.813 94.4 227.902c0 86.091-33.525 167.028-94.4 227.903-60.874 60.875-141.811 94.4-227.902 94.4z m0-594.606c-150.148 0-272.303 122.154-272.303 272.303s122.155 272.304 272.303 272.304 272.303-122.155 272.303-272.304-122.154-272.303-272.303-272.303z" fill="#5F56FF" p-id="12755"></path><path d="M514.292 443.608m-144.95 0a144.95 144.95 0 1 0 289.9 0 144.95 144.95 0 1 0-289.9 0Z" fill="#FFFFFF" p-id="12756"></path><path d="M514.292 613.558c-93.711 0-169.95-76.239-169.95-169.95s76.239-169.95 169.95-169.95c93.71 0 169.95 76.239 169.95 169.95s-76.239 169.95-169.95 169.95z m0-289.901c-66.141 0-119.95 53.81-119.95 119.95s53.81 119.95 119.95 119.95 119.95-53.81 119.95-119.95-53.809-119.95-119.95-119.95z" fill="#5F56FF" p-id="12757"></path><path d="M445.398 381.331m-27.162 0a27.162 27.162 0 1 0 54.324 0 27.162 27.162 0 1 0-54.324 0Z" fill="#75E6FF" p-id="12758"></path><path d="M792.383 934.226H238.374c-13.807 0-25-11.193-25-25v-4.325c0-13.807 11.193-25 25-25h554.009c13.807 0 25 11.193 25 25v4.325c0 13.808-11.193 25-25 25z" fill="#5F56FF" p-id="12759"></path></svg>