<?xml version="1.0" standalone="no"?><!DOCTYPE svg PUBLIC "-//W3C//DTD SVG 1.1//EN" "http://www.w3.org/Graphics/SVG/1.1/DTD/svg11.dtd"><svg t="1709782707366" class="icon" viewBox="0 0 1024 1024" version="1.1" xmlns="http://www.w3.org/2000/svg" p-id="22462" xmlns:xlink="http://www.w3.org/1999/xlink" width="200" height="200"><path d="M320 608c-54.4 0-96 41.6-96 96s41.6 96 96 96h384c54.4 0 96-41.6 96-96s-41.6-96-96-96H320z m0-64h384c89.6 0 160 70.4 160 160s-70.4 160-160 160H320c-89.6 0-160-70.4-160-160s70.4-160 160-160z" fill="#597EF7" p-id="22463"></path><path d="M352 672c19.2 0 32 12.8 32 32s-12.8 32-32 32-32-12.8-32-32 12.8-32 32-32zM512 672c19.2 0 32 12.8 32 32s-12.8 32-32 32-32-12.8-32-32 12.8-32 32-32zM672 672c19.2 0 32 12.8 32 32s-12.8 32-32 32-32-12.8-32-32 12.8-32 32-32zM848 230.4c12.8 12.8 12.8 32 0 44.8-12.8 12.8-32 12.8-44.8 0-163.2-163.2-425.6-163.2-588.8 0-12.8 12.8-32 12.8-44.8 0-12.8-12.8-12.8-32 0-44.8 188.8-188.8 489.6-188.8 678.4 0z" fill="#597EF7" p-id="22464"></path><path d="M758.4 320c12.8 12.8 12.8 32 0 44.8s-32 12.8-44.8 0c-112-112-294.4-112-406.4 0-12.8 12.8-32 12.8-44.8 0-12.8-12.8-12.8-32 0-44.8 134.4-137.6 358.4-137.6 496 0z" fill="#50E3C2" p-id="22465"></path><path d="M665.6 409.6c12.8 12.8 12.8 32 0 44.8s-32 12.8-44.8 0c-64-64-163.2-64-227.2 0-12.8 12.8-32 12.8-44.8 0-12.8-12.8-12.8-32 0-44.8 89.6-86.4 230.4-86.4 316.8 0z" fill="#597EF7" p-id="22466"></path></svg>